<svg width="220" height="56" viewBox="0 0 220 56" fill="none" xmlns="http://www.w3.org/2000/svg">
<path d="M28.0006 2.40479L50.6086 50.2373H5.39258L28.0006 2.40479Z" fill="#FECD2F"/>
<path fill-rule="evenodd" clip-rule="evenodd" d="M14.6443 44.4741H41.3557L28 16.2169L14.6443 44.4741ZM0 47.8326L22.608 0H33.392L56 47.8326L50.608 56H5.39198L0 47.8326Z" fill="url(#paint0_linear_60317_632)"/>
<path d="M64.36 41L74.32 18.05H74.56L84.52 41H79.48L73.12 24.86L76.27 22.7L68.65 41H64.36ZM71.17 33.02H77.8L79.33 36.68H69.82L71.17 33.02ZM87.0487 17.33H91.2487V41H87.0487V17.33ZM99.8041 41.63C98.6241 41.63 97.6341 41.27 96.8341 40.55C96.0341 39.81 95.6141 38.86 95.5741 37.7V27.89H99.7741V36.14C99.8141 36.72 99.9641 37.19 100.224 37.55C100.484 37.89 100.924 38.06 101.544 38.06C102.164 38.06 102.694 37.85 103.134 37.43C103.594 37.01 103.944 36.44 104.184 35.72C104.444 34.98 104.574 34.15 104.574 33.23V27.89H108.774V41H104.964L104.634 38.6L104.694 38.87C104.394 39.41 104.014 39.89 103.554 40.31C103.094 40.73 102.544 41.05 101.904 41.27C101.284 41.51 100.584 41.63 99.8041 41.63ZM116.874 27.89L117.264 31.49L117.174 30.95C117.554 30.17 118.074 29.51 118.734 28.97C119.394 28.41 120.044 27.98 120.684 27.68C121.344 27.38 121.844 27.23 122.184 27.23L121.974 31.43C120.994 31.31 120.154 31.47 119.454 31.91C118.754 32.35 118.214 32.93 117.834 33.65C117.454 34.37 117.264 35.11 117.264 35.87V41H113.094V27.89H116.874ZM130.479 41.36C129.259 41.36 128.149 41.12 127.149 40.64C126.169 40.14 125.389 39.38 124.809 38.36C124.229 37.34 123.939 36.04 123.939 34.46C123.939 32.98 124.239 31.7 124.839 30.62C125.439 29.54 126.229 28.71 127.209 28.13C128.189 27.53 129.229 27.23 130.329 27.23C131.629 27.23 132.609 27.45 133.269 27.89C133.949 28.31 134.509 28.78 134.949 29.3L134.769 29.81L135.159 27.89H139.059V41H134.859V38.15L135.189 39.05C135.149 39.05 135.029 39.17 134.829 39.41C134.629 39.63 134.329 39.9 133.929 40.22C133.549 40.52 133.069 40.78 132.489 41C131.929 41.24 131.259 41.36 130.479 41.36ZM131.679 37.94C132.179 37.94 132.629 37.87 133.029 37.73C133.429 37.57 133.779 37.35 134.079 37.07C134.379 36.77 134.639 36.4 134.859 35.96V32.75C134.699 32.31 134.459 31.94 134.139 31.64C133.819 31.32 133.439 31.08 132.999 30.92C132.559 30.74 132.069 30.65 131.529 30.65C130.929 30.65 130.369 30.81 129.849 31.13C129.349 31.43 128.949 31.85 128.649 32.39C128.349 32.93 128.199 33.55 128.199 34.25C128.199 34.95 128.359 35.58 128.679 36.14C128.999 36.7 129.419 37.14 129.939 37.46C130.479 37.78 131.059 37.94 131.679 37.94ZM149.927 19.31C152.107 19.31 153.817 19.76 155.057 20.66C156.317 21.54 156.947 22.92 156.947 24.8C156.947 25.94 156.687 26.93 156.167 27.77C155.647 28.61 154.917 29.27 153.977 29.75C153.057 30.23 151.967 30.5 150.707 30.56L150.287 29.06C151.747 29.1 153.057 29.36 154.217 29.84C155.377 30.32 156.297 30.99 156.977 31.85C157.657 32.71 157.997 33.73 157.997 34.91C157.997 35.99 157.797 36.92 157.397 37.7C156.997 38.46 156.457 39.09 155.777 39.59C155.097 40.07 154.327 40.43 153.467 40.67C152.607 40.89 151.717 41 150.797 41H144.347V19.31H149.927ZM150.527 28.82C151.727 28.82 152.597 28.49 153.137 27.83C153.677 27.15 153.947 26.33 153.947 25.37C153.947 24.23 153.597 23.4 152.897 22.88C152.197 22.36 151.257 22.1 150.077 22.1H147.257V28.82H150.527ZM150.647 38.3C151.447 38.3 152.177 38.18 152.837 37.94C153.517 37.7 154.047 37.33 154.427 36.83C154.827 36.33 155.027 35.7 155.027 34.94C155.027 34.1 154.797 33.44 154.337 32.96C153.897 32.48 153.327 32.14 152.627 31.94C151.927 31.72 151.207 31.61 150.467 31.61H147.257V38.3H150.647ZM161.121 34.67C161.121 33.43 161.411 32.31 161.991 31.31C162.591 30.31 163.411 29.52 164.451 28.94C165.491 28.36 166.671 28.07 167.991 28.07C169.351 28.07 170.541 28.36 171.561 28.94C172.581 29.52 173.371 30.31 173.931 31.31C174.491 32.31 174.771 33.43 174.771 34.67C174.771 35.91 174.491 37.04 173.931 38.06C173.371 39.06 172.571 39.85 171.531 40.43C170.511 41.01 169.321 41.3 167.961 41.3C166.641 41.3 165.461 41.03 164.421 40.49C163.401 39.93 162.591 39.16 161.991 38.18C161.411 37.18 161.121 36.01 161.121 34.67ZM163.911 34.7C163.911 35.5 164.091 36.23 164.451 36.89C164.811 37.53 165.291 38.04 165.891 38.42C166.511 38.8 167.191 38.99 167.931 38.99C168.711 38.99 169.401 38.8 170.001 38.42C170.621 38.04 171.101 37.53 171.441 36.89C171.781 36.23 171.951 35.5 171.951 34.7C171.951 33.9 171.781 33.18 171.441 32.54C171.101 31.88 170.621 31.36 170.001 30.98C169.401 30.58 168.711 30.38 167.931 30.38C167.171 30.38 166.481 30.58 165.861 30.98C165.261 31.38 164.781 31.91 164.421 32.57C164.081 33.21 163.911 33.92 163.911 34.7ZM177.469 34.67C177.469 33.43 177.759 32.31 178.339 31.31C178.939 30.31 179.759 29.52 180.799 28.94C181.839 28.36 183.019 28.07 184.339 28.07C185.699 28.07 186.889 28.36 187.909 28.94C188.929 29.52 189.719 30.31 190.279 31.31C190.839 32.31 191.119 33.43 191.119 34.67C191.119 35.91 190.839 37.04 190.279 38.06C189.719 39.06 188.919 39.85 187.879 40.43C186.859 41.01 185.669 41.3 184.309 41.3C182.989 41.3 181.809 41.03 180.769 40.49C179.749 39.93 178.939 39.16 178.339 38.18C177.759 37.18 177.469 36.01 177.469 34.67ZM180.259 34.7C180.259 35.5 180.439 36.23 180.799 36.89C181.159 37.53 181.639 38.04 182.239 38.42C182.859 38.8 183.539 38.99 184.279 38.99C185.059 38.99 185.749 38.8 186.349 38.42C186.969 38.04 187.449 37.53 187.789 36.89C188.129 36.23 188.299 35.5 188.299 34.7C188.299 33.9 188.129 33.18 187.789 32.54C187.449 31.88 186.969 31.36 186.349 30.98C185.749 30.58 185.059 30.38 184.279 30.38C183.519 30.38 182.829 30.58 182.209 30.98C181.609 31.38 181.129 31.91 180.769 32.57C180.429 33.21 180.259 33.92 180.259 34.7ZM194.897 41V17.78H197.687V41H194.897ZM200.687 32.75L206.387 41H203.117L198.827 34.31L200.687 32.75ZM196.817 37.04L196.547 34.37L204.077 28.31L205.787 29.78L196.817 37.04ZM213.318 41.24C212.438 41.24 211.578 41.09 210.738 40.79C209.918 40.47 209.238 40 208.698 39.38L209.868 37.76C210.388 38.26 210.918 38.64 211.458 38.9C212.018 39.14 212.568 39.26 213.108 39.26C213.508 39.26 213.878 39.21 214.218 39.11C214.558 39.01 214.828 38.85 215.028 38.63C215.248 38.39 215.358 38.07 215.358 37.67C215.358 37.23 215.208 36.88 214.908 36.62C214.628 36.36 214.258 36.15 213.798 35.99C213.358 35.83 212.888 35.68 212.388 35.54C211.368 35.2 210.588 34.73 210.048 34.13C209.508 33.53 209.238 32.8 209.238 31.94C209.238 31.28 209.398 30.67 209.718 30.11C210.058 29.53 210.548 29.06 211.188 28.7C211.848 28.34 212.658 28.16 213.618 28.16C214.478 28.16 215.248 28.27 215.928 28.49C216.608 28.69 217.248 29.03 217.848 29.51L216.738 31.25C216.378 30.87 215.948 30.59 215.448 30.41C214.948 30.23 214.498 30.13 214.098 30.11C213.758 30.09 213.428 30.14 213.108 30.26C212.808 30.38 212.558 30.55 212.358 30.77C212.158 30.99 212.058 31.25 212.058 31.55C212.058 31.97 212.198 32.31 212.478 32.57C212.758 32.83 213.118 33.04 213.558 33.2C214.018 33.34 214.468 33.49 214.908 33.65C215.528 33.83 216.078 34.07 216.558 34.37C217.038 34.67 217.418 35.04 217.698 35.48C217.998 35.92 218.148 36.47 218.148 37.13C218.148 37.87 217.968 38.56 217.608 39.2C217.268 39.82 216.738 40.32 216.018 40.7C215.318 41.06 214.418 41.24 213.318 41.24Z" fill="black"/>
<defs>
<linearGradient id="paint0_linear_60317_632" x1="28" y1="0" x2="28" y2="56" gradientUnits="userSpaceOnUse">
<stop offset="0.677083" stop-color="#FD8325"/>
<stop offset="1" stop-color="#FC6621"/>
</linearGradient>
</defs>
</svg>
